HIERARCHY
ROOT Hips
{
  OFFSET 46.3309 91.8302 -14.4133
  CHANNELS 6 Xposition Yposition Zposition Zrotation Xrotation Yrotation
  JOINT Chest
  {
    OFFSET 1.23234e-007 14.8421 1.27321e-009
    CHANNELS 6 Xposition Yposition Zposition Zrotation Xrotation Yrotation
    JOINT Neck
    {
      OFFSET 0.51659 29.8236 6.51843
      CHANNELS 6 Xposition Yposition Zposition Zrotation Xrotation Yrotation
      JOINT Head
      {
        OFFSET 1.16803e-007 7.47049 6.44171e-007
        CHANNELS 6 Xposition Yposition Zposition Zrotation Xrotation Yrotation
        End Site
        {
          OFFSET -4.32676e-008 16.2908 2.16786e-007
        }
      }
    }
    JOINT LeftCollar
    {
      OFFSET 6.64893 27.3161 3.27471
      CHANNELS 6 Xposition Yposition Zposition Zrotation Xrotation Yrotation
      JOINT LeftUpArm
      {
        OFFSET 10.8584 2.41798 -0.945791
        CHANNELS 6 Xposition Yposition Zposition Zrotation Xrotation Yrotation
        JOINT LeftLowArm
        {
          OFFSET 3.77631 -24.5904 -1.70468
          CHANNELS 6 Xposition Yposition Zposition Zrotation Xrotation Yrotation
          JOINT LeftHand
          {
            OFFSET 1.01026 -21.1231 1.74131
            CHANNELS 6 Xposition Yposition Zposition Zrotation Xrotation Yrotation
            End Site
            {
              OFFSET 1.17583e-006 -9.81266 -2.89439e-008
            }
          }
        }
      }
    }
    JOINT RightCollar
    {
      OFFSET -6.11406 27.2248 4.23427
      CHANNELS 6 Xposition Yposition Zposition Zrotation Xrotation Yrotation
      JOINT RightUpArm
      {
        OFFSET -10.4566 2.3285 -0.910794
        CHANNELS 6 Xposition Yposition Zposition Zrotation Xrotation Yrotation
        JOINT RightLowArm
        {
          OFFSET -3.86856 -25.191 -1.74633
          CHANNELS 6 Xposition Yposition Zposition Zrotation Xrotation Yrotation
          JOINT RightHand
          {
            OFFSET -1.04759 -20.6242 1.75213
            CHANNELS 6 Xposition Yposition Zposition Zrotation Xrotation Yrotation
            End Site
            {
              OFFSET -2.03487e-006 -9.50367 -4.31372e-006
            }
          }
        }
      }
    }
  }
  JOINT LeftUpLeg
  {
    OFFSET 9 -3.38008e-006 -5.22994e-009
    CHANNELS 6 Xposition Yposition Zposition Zrotation Xrotation Yrotation
    JOINT LeftLowLeg
    {
      OFFSET -0.575 -51.431 3.90177
      CHANNELS 6 Xposition Yposition Zposition Zrotation Xrotation Yrotation
      JOINT LeftFoot
      {
        OFFSET 2.13082e-007 -43.5882 -3.90177
        CHANNELS 6 Xposition Yposition Zposition Zrotation Xrotation Yrotation
        End Site
        {
          OFFSET 7.44796e-007 -6.93413 15.0046
        }
      }
    }
  }
  JOINT RightUpLeg
  {
    OFFSET -9 6.86154e-007 -3.19539e-009
    CHANNELS 6 Xposition Yposition Zposition Zrotation Xrotation Yrotation
    JOINT RightLowLeg
    {
      OFFSET 0.575 -51.4311 3.90177
      CHANNELS 6 Xposition Yposition Zposition Zrotation Xrotation Yrotation
      JOINT RightFoot
      {
        OFFSET -7.46079e-007 -43.5882 -3.90177
        CHANNELS 6 Xposition Yposition Zposition Zrotation Xrotation Yrotation
        End Site
        {
          OFFSET 4.66716e-007 -6.93413 15.0046
        }
      }
    }
  }
}
MOTION
Frames:	9
Frame Time:	0.0333333
-62.4478 91.8464 229.627 -1.06053 -1.80233 -91.9623 1.23233e-007 14.8421 1.27294e-009 -3.56485 19.8754 -28.5325 0.51659 29.8236 6.51843 -3.78032 -23.278 8.86192 1.16803e-007 7.47049 6.44171e-007 1.94959 19.14 6.9163 6.64893 27.3161 3.27471 -2.94784 5.93879 -4.20517 10.8584 2.41798 -0.945791 35.2911 -23.95 33.0952 3.77631 -24.5904 -1.70468 10.0892 -5.5976 12.0117 1.01026 -21.1231 1.74131 -1.73459 -0.46254 -0.604409 -6.11406 27.2248 4.23427 -1.96452 7.32629 3.42623 -10.4566 2.3285 -0.910794 -3.98915 -2.06066 -3.78776 -3.86856 -25.191 -1.74633 37.4593 -50.24 61.515 -1.04759 -20.6242 1.75213 -124.761 -22.7813 -55.3706 9 -3.38008e-006 -5.23015e-009 4.89098 -2.4276 9.53007 -0.575 -51.431 3.90177 -4.09459 40.8886 -21.3326 2.13082e-007 -43.5882 -3.90177 25.9035 -26.0283 3.40912 -9 6.86154e-007 -3.1954e-009 -6.15594 -35.8382 -15.7182 0.575 -51.4311 3.90177 -7.55931 51.1741 1.01765 -7.46071e-007 -43.5882 -3.90177 -1.55442 -6.32124 0.146525 
-65.8662 93.8342 228.008 -1.38253 -2.21943 -78.281 1.23234e-007 14.8421 1.27291e-009 0.835354 18.4051 -38.8093 0.51659 29.8236 6.51843 -4.39525 -19.5759 7.65427 1.16803e-007 7.47049 6.44171e-007 1.91735 18.3832 5.75871 6.64893 27.3161 3.27471 -2.94784 5.93879 -4.20517 10.8584 2.41798 -0.945791 32.2169 -26.1582 32.0351 3.77631 -24.5904 -1.70468 8.81843 -8.52878 32.9486 1.01026 -21.1231 1.74131 -6.64542 -2.46558 -1.48304 -6.11406 27.2248 4.23427 -1.96452 7.32629 3.42623 -10.4566 2.3285 -0.910794 -1.43103 -5.70077 -6.42068 -3.86856 -25.191 -1.74633 43.2328 -53.1413 67.1338 -1.04759 -20.6242 1.75213 -118.279 -15.3666 -40.878 9 -3.38008e-006 -5.23017e-009 7.29503 -0.146698 8.94244 -0.575 -51.431 3.90177 -1.34728 35.2498 -34.8494 2.13082e-007 -43.5882 -3.90177 24.0436 -20.7762 1.97496 -9 6.86154e-007 -3.19544e-009 -12.1527 -34.8355 -19.1177 0.575 -51.4311 3.90177 -4.6952 35.3708 0.61162 -7.46071e-007 -43.5882 -3.90177 1.22616 9.21776 -0.341332 
-69.7632 95.2046 226.341 -0.465412 -2.24715 -63.1308 1.23234e-007 14.8421 1.27304e-009 3.42753 11.767 -43.281 0.51659 29.8236 6.51843 -2.56346 -16.4477 3.70994 1.16803e-007 7.47049 6.44171e-007 0.96618 19.4903 2.80511 6.64893 27.3161 3.27471 -2.94784 5.93879 -4.20517 10.8584 2.41798 -0.945791 22.3148 -29.8293 22.4949 3.77631 -24.5904 -1.70468 9.38191 -14.8251 57.3614 1.01026 -21.1231 1.74131 -15.854 0.320986 -2.30411 -6.11406 27.2248 4.23427 -1.96452 7.32629 3.42623 -10.4566 2.3285 -0.910794 -1.45796 -8.5335 -11.9003 -3.86856 -25.191 -1.74633 52.8052 -57.789 76.7443 -1.04759 -20.6242 1.75213 -113.048 -6.91476 -27.4916 9 -3.38008e-006 -5.23018e-009 10.0718 -0.777492 8.7865 -0.575 -51.431 3.90177 1.9558 30.583 -47.9368 2.13082e-007 -43.5882 -3.90177 22.5372 -16.0254 0.875255 -9 6.86154e-007 -3.1954e-009 -18.9803 -29.9618 -22.4093 0.575 -51.4311 3.90177 -3.46672 17.3249 8.4795 -7.46071e-007 -43.5882 -3.90177 5.7814 29.3828 -2.4191 
-74.9162 95.3903 225.433 0.251417 -1.63152 -50.8923 1.23234e-007 14.8421 1.27321e-009 1.44654 3.07186 -31.8592 0.51659 29.8236 6.51843 1.2134 -14.9389 -4.86904 1.16803e-007 7.47049 6.44171e-007 0.978855 21.1069 -4.22045 6.64893 27.3161 3.27471 -2.94784 5.93879 -4.20517 10.8584 2.41798 -0.945791 -0.531524 -30.3881 -4.90043 3.77631 -24.5904 -1.70468 19.4049 -22.149 73.5072 1.01026 -21.1231 1.74131 -28.9039 3.04904 -3.13071 -6.11406 27.2248 4.23427 -1.96452 7.32629 3.42623 -10.4566 2.3285 -0.910794 -10.7023 -7.52018 -26.6641 -3.86856 -25.191 -1.74633 67.6669 -61.2621 92.0528 -1.04759 -20.6242 1.75213 -108.379 -4.41157 -22.5847 9 -3.38008e-006 -5.23015e-009 13.3417 -2.0478 10.137 -0.575 -51.431 3.90177 3.71113 27.9659 -50.8793 2.13082e-007 -43.5882 -3.90177 22.2323 -12.8572 0.23801 -9 6.86154e-007 -3.19511e-009 -23.6341 -23.0932 -24.8475 0.575 -51.4311 3.90177 -3.45192 6.85837 13.5388 -7.46071e-007 -43.5882 -3.90177 9.27212 38.9403 -4.56781 
-80.9682 94.2231 224.378 0.985272 0.424323 -46.1001 1.23234e-007 14.8421 1.27349e-009 -3.76456 -2.40596 -14.0264 0.51659 29.8236 6.51843 12.5947 -8.65529 -16.218 1.16803e-007 7.47049 6.44171e-007 -2.3913 15.2912 -10.7153 6.64893 27.3161 3.27471 -2.94784 5.93879 -4.20517 10.8584 2.41798 -0.945791 2.90717 -6.49142 -16.5732 3.77631 -24.5904 -1.70468 9.38227 -70.125 75.1015 1.01026 -21.1231 1.74131 -35.086 4.9416 -3.08927 -6.11406 27.2248 4.23427 -1.96452 7.32629 3.42623 -10.4566 2.3285 -0.910794 -24.9035 -8.01037 -38.1822 -3.86856 -25.191 -1.74633 54.4665 -62.7473 88.9736 -1.04759 -20.6242 1.75213 -102.469 -10.8102 -26.9806 9 -3.38008e-006 -5.23011e-009 18.1575 -2.97927 13.272 -0.575 -51.431 3.90177 3.43033 27.8789 -48.9823 2.13082e-007 -43.5882 -3.90177 23.5448 -13.5597 0.402954 -9 6.86154e-007 -3.19562e-009 -24.3262 -23.4543 -26.0083 0.575 -51.4311 3.90177 -3.78907 13.2649 12.2517 -7.46071e-007 -43.5882 -3.90177 1.92644 27.2246 -1.02305 
-86.3177 92.5994 223.641 -1.23858 -1.18843 -48.9181 1.23233e-007 14.8421 1.27363e-009 -9.60879 -3.36767 4.26695 0.51659 29.8236 6.51843 28.1063 2.55165 -26.3435 1.16803e-007 7.47049 6.44171e-007 -3.36344 0.527074 -14.4846 6.64893 27.3161 3.27471 -2.94784 5.93879 -4.20517 10.8584 2.41798 -0.945791 9.07379 5.71411 -17.5839 3.77631 -24.5904 -1.70468 -135.214 -82.9383 -60.637 1.01026 -21.1231 1.74131 -42.6947 5.33648 -3.64421 -6.11406 27.2248 4.23427 -1.96452 7.32629 3.42623 -10.4566 2.3285 -0.910794 -41.4474 -27.6946 -32.505 -3.86856 -25.191 -1.74633 -12.6296 -26.3024 70.7608 -1.04759 -20.6242 1.75213 -102.722 -15.8167 -32.0752 9 -3.38008e-006 -5.22996e-009 20.7288 3.21199 15.0473 -0.575 -51.431 3.90177 3.04865 27.6254 -42.7837 2.13082e-007 -43.5882 -3.90177 24.2274 -14.7477 0.673015 -9 6.86154e-007 -3.19554e-009 -23.958 -26.0602 -27.0194 0.575 -51.4311 3.90177 -4.10307 26.6677 14.5605 -7.46071e-007 -43.5882 -3.90177 -1.98512 16.9968 0.220673 
-90.634 91.1375 223.065 -3.37196 -2.47258 -51.9996 1.23233e-007 14.8421 1.27375e-009 -4.06518 4.55425 13.0712 0.51659 29.8236 6.51843 19.9436 -8.62014 -24.3803 1.16803e-007 7.47049 6.44171e-007 -2.96822 11.8065 -16.4532 6.64893 27.3161 3.27471 -2.94784 5.93879 -4.20517 10.8584 2.41798 -0.945791 3.73479 13.0108 -5.84085 3.77631 -24.5904 -1.70468 -142.406 -80.5365 -71.1908 1.01026 -21.1231 1.74131 -40.1012 4.44119 -3.78939 -6.11406 27.2248 4.23427 -1.96452 7.32629 3.42623 -10.4566 2.3285 -0.910794 -71.0191 -38.2973 -47.825 -3.86856 -25.191 -1.74633 -20.7391 -3.29796 140.887 -1.04759 -20.6242 1.75213 -103.095 -42.8109 -57.4581 9 -3.38008e-006 -5.22979e-009 22.2339 8.66446 15.9514 -0.575 -51.431 3.90177 2.74592 27.783 -36.9699 2.13082e-007 -43.5882 -3.90177 24.3646 -16.2301 1.00028 -9 6.86154e-007 -3.19534e-009 -22.649 -27.6931 -26.3225 0.575 -51.4311 3.90177 -5.11905 36.4143 17.8185 -7.46071e-007 -43.5882 -3.90177 -4.65185 9.83381 0.666991 
-95.1812 90.9966 221.853 -4.6057 -1.65708 -45.2082 1.23233e-007 14.8421 1.27386e-009 -2.83824 3.63095 8.83846 0.51659 29.8236 6.51843 9.98525 -18.2591 -23.3593 1.16803e-007 7.47049 6.44171e-007 -2.24401 18.6273 -18.4113 6.64893 27.3161 3.27471 -2.94784 5.93879 -4.20517 10.8584 2.41798 -0.945791 3.08013 15.5772 -2.19247 3.77631 -24.5904 -1.70468 -57.7793 -87.322 14.5681 1.01026 -21.1231 1.74131 -34.8699 4.03825 -3.41485 -6.11406 27.2248 4.23427 -1.96452 7.32629 3.42623 -10.4566 2.3285 -0.910794 -70.366 -32.5547 -43.3179 -3.86856 -25.191 -1.74633 -16.0704 -19.3159 118.101 -1.04759 -20.6242 1.75213 -105.954 -33.9409 -51.697 9 -3.38008e-006 -5.23022e-009 27.0922 8.22779 17.6938 -0.575 -51.431 3.90177 3.29354 25.037 -45.097 2.13082e-007 -43.5882 -3.90177 23.2773 -13.4045 0.365432 -9 6.86154e-007 -3.19594e-009 -22.2909 -24.6916 -28.7134 0.575 -51.4311 3.90177 -3.89916 41.6723 13.5131 -7.46071e-007 -43.5882 -3.90177 -6.1353 4.2204 0.710979 
-98.1443 90.9361 220.85 -2.29153 1.96977 -34.2915 1.23233e-007 14.8421 1.27396e-009 -5.42242 -4.21411 8.84852 0.51659 29.8236 6.51843 20.3174 -7.2774 -27.8855 1.16803e-007 7.47049 6.44171e-007 -1.41111 5.28047 -20.224 6.64893 27.3161 3.27471 -2.94784 5.93879 -4.20517 10.8584 2.41798 -0.945791 4.55855 9.59161 -7.25209 3.77631 -24.5904 -1.70468 -0.444694 -77.6386 70.3405 1.01026 -21.1231 1.74131 -33.5444 5.05114 -2.9039 -6.11406 27.2248 4.23427 -1.96452 7.32629 3.42623 -10.4566 2.3285 -0.910794 -68.1679 -24.2842 -41.845 -3.86856 -25.191 -1.74633 -19.4404 -7.93871 122.906 -1.04759 -20.6242 1.75213 -103.45 -35.5998 -51.2818 9 -3.38008e-006 -5.22994e-009 29.822 -0.411564 18.7143 -0.575 -51.431 3.90177 4.32143 23.8349 -54.0123 2.13082e-007 -43.5882 -3.90177 22.9485 -11.5985 -0.00592394 -9 6.86154e-007 -3.1954e-009 -25.7352 -23.6232 -36.0719 0.575 -51.4311 3.90177 -0.0422562 44.8093 6.66837 -7.46071e-007 -43.5882 -3.90177 -6.70732 0.607139 0.626588 
